/vscmnt/brussel_pixiu_data/_data_brussel/112/vsc11236/PredSimResults/SUBJ06mtu3D/worker6.mot
version=1
nRows=5
nColumns=50
inDegrees=yes
endheader
                time	         pelvis_tilt	         pelvis_list	     pelvis_rotation	           pelvis_tx	           pelvis_ty	           pelvis_tz	       hip_flexion_r	     hip_adduction_r	      hip_rotation_r	        knee_angle_r	       ankle_angle_r	         mtp_angle_r	       hip_flexion_l	     hip_adduction_l	      hip_rotation_l	        knee_angle_l	       ankle_angle_l	         mtp_angle_l	    lumbar_extension	      lumbar_bending	     lumbar_rotation	 ercspn_r/activation	 intobl_r/activation	 extobl_r/activation	    abd_r/activation	    add_r/activation	hamstrings_r/activation	bifemsh_r/activation	glut_max_r/activation	iliopsoas_r/activation	rect_fem_r/activation	  vasti_r/activation	gastroc_r/activation	 soleus_r/activation	tib_ant_r/activation	 ercspn_l/activation	 intobl_l/activation	 extobl_l/activation	    abd_l/activation	    add_l/activation	hamstrings_l/activation	bifemsh_l/activation	glut_max_l/activation	iliopsoas_l/activation	rect_fem_l/activation	  vasti_l/activation	gastroc_l/activation	 soleus_l/activation	tib_ant_l/activation	
          0.00000000	         -5.25956510	          0.07666597	          3.26115939	          0.00000000	          0.92990090	         -0.01130364	         32.72325263	         -2.67277416	         -4.55412665	        -10.22895758	          0.06691714	          0.22182714	        -11.02609774	         -0.62574802	         -7.73339798	        -11.30670238	          8.40249969	         33.24985164	         -7.38977231	         -1.13582882	         -6.70141279	          0.20449308	          0.14025027	          0.01000004	          0.01000001	          0.30307292	          0.10089782	          0.16042253	          0.04643149	          0.10769842	          0.01194941	          0.01000003	          0.01092151	          0.01000000	          0.49431358	          0.09924935	          0.01000000	          0.01000002	          0.07334440	          0.01000019	          0.01000030	          0.15476731	          0.02271851	          0.58825164	          0.02567171	          0.01000001	          0.25773955	          0.37902844	          0.01887457	
          0.01244937	         -5.35742976	          0.19596798	          3.26900928	          0.01699964	          0.92806101	         -0.00988649	         32.89199699	         -2.57264348	         -4.76829640	        -11.90486664	         -0.22641910	          0.22753608	        -11.49173574	         -0.70180642	         -8.12094112	        -12.10717652	          7.31700059	         35.11306719	         -7.04736543	         -0.90490495	         -7.22362904	          0.19284139	          0.11615031	          0.01000009	          0.01000000	          0.42457131	          0.09575202	          0.13285631	          0.13980016	          0.08919202	          0.01000062	          0.01000002	          0.01000059	          0.01458049	          0.50728339	          0.15580188	          0.01000002	          0.01000002	          0.06074124	          0.01000246	          0.01002693	          0.12817291	          0.02125852	          0.60088485	          0.02126044	          0.01452865	          0.22354720	          0.35737695	          0.01563125	
          0.02489874	         -5.42793031	          0.25864431	          3.27412077	          0.03450747	          0.92642102	         -0.00842431	         32.78934136	         -2.51570405	         -4.67190353	        -13.52876249	         -0.45056653	          0.19609040	        -11.81168460	         -0.87946235	         -8.48549405	        -13.25785723	          6.12022225	         37.01282540	         -6.67123326	         -0.60322147	         -7.71189330	          0.15970444	          0.09619160	          0.01000004	          0.02852813	          0.35161497	          0.09967157	          0.11002693	          0.15365840	          0.07386567	          0.01000004	          0.01000005	          0.01207520	          0.01207506	          0.56095600	          0.13692675	          0.01000000	          0.01000003	          0.05030374	          0.01000065	          0.01141609	          0.10614857	          0.01760556	          0.60405471	          0.01760717	          0.01203214	          0.18513389	          0.32849660	          0.01294525	
          0.03734810	         -5.47492843	          0.28052321	          3.25617935	          0.05223550	          0.92506022	         -0.00682014	         32.53767254	         -2.44106681	         -4.67693502	        -14.94699773	         -0.77756198	          0.18732857	        -11.88621285	         -1.15428227	         -8.84649769	        -14.90077843	          4.79900974	         38.92941263	         -6.29701517	         -0.26197786	         -8.14584766	          0.16396779	          0.07966248	          0.01000004	          0.06856600	          0.34106661	          0.09906168	          0.09112044	          0.17631180	          0.06117293	          0.01000003	          0.03157190	          0.01000028	          0.01000014	          0.62573672	          0.14457969	          0.01000000	          0.01000002	          0.04165978	          0.01000026	          0.01000039	          0.08790899	          0.01458031	          0.57912786	          0.01458165	          0.01000003	          0.15332134	          0.29780632	          0.01072080	
          0.04979747	         -5.49873586	          0.26755900	          3.21498824	          0.06993105	          0.92409247	         -0.00508965	         32.24307211	         -2.34316169	         -4.78258913	        -16.30609346	         -1.12112220	          0.15278963	        -11.64092844	         -1.53008833	         -9.20602463	        -17.12779089	          3.30457688	         40.81614577	         -5.95473933	          0.11224073	         -8.51929094	          0.16018855	          0.06597365	          0.01000004	          0.11273876	          0.32675387	          0.09555170	          0.07546277	          0.20142368	          0.05066126	          0.01000003	          0.08664805	          0.01000003	          0.01000000	          0.68824210	          0.18420872	          0.01000001	          0.01000002	          0.03450115	          0.01000029	          0.01006991	          0.07280379	          0.01207491	          0.51165402	          0.01207603	          0.01000002	          0.12697530	          0.24663268	          0.01000000	
